<svg width="1057" height="469" viewBox="0 0 1057 469" fill="none" xmlns="http://www.w3.org/2000/svg">
<path d="M310.72 346.489C272.077 381.939 252.066 422.603 242.459 466.21C242.048 468.079 244.237 469.339 245.65 468.05C254.478 459.999 262.719 451.747 271.193 443.618C303.71 412.427 343.595 387.35 392.214 369.556C423.033 358.276 455.499 350.69 489.173 344.748C525.913 338.265 562.691 335.151 600.447 335.276C643.688 335.418 687.084 337.466 729.947 330.206C744.544 327.734 759.15 325.297 773.106 321.614C808.054 312.392 836.901 296.419 863.142 277.906C865.941 275.932 869.213 274.087 871.316 271.219C872.155 270.076 871.193 268.655 869.775 268.692C865.087 268.816 860.915 269.065 856.697 269.819C827.616 275.019 798.017 277.564 768.131 279.041C755.532 279.663 742.794 279.052 731.636 276.098C731.439 276.046 731.235 276.023 731.031 276.033C728.086 276.181 724.09 276.583 723.621 273.299C723.16 270.058 727.176 269.939 730.244 269.248C758.449 262.893 785.664 254.648 813.292 247.18C866.248 232.865 910.252 210.078 944.392 177.802C949.866 172.627 956.281 167.801 961.274 160.693C962.248 159.307 961.032 157.546 959.364 157.843C912.527 166.184 837.942 178.122 791.539 174.359C790.447 174.271 789.606 173.298 789.88 172.238C790.269 170.733 791.085 169.915 793 169.306C804.561 165.629 850.74 159.407 862.205 155.578C896.231 144.216 929.885 132.25 958.797 114.861C1005.82 86.5798 1035.55 50.0764 1055.13 8.95173C1056.3 6.49783 1058.46 3.89558 1055.53 1.72799C1052.03 -0.849817 1048.1 1.22477 1044.7 2.35391C986.08 21.8081 929.539 44.1106 873.545 67.0798C836.808 82.1495 800.374 97.6139 764.274 113.488C710.681 137.054 657.976 161.595 605.361 186.229C569.111 203.201 533.694 221.084 498.051 238.712C455.69 259.662 413.295 280.586 373.05 303.617C350.813 316.342 330.577 330.566 310.72 346.489ZM119.986 42.0326C81.5897 27.8109 43.3542 13.3453 2.65464 0.813545C1.34985 0.411789 0.0392048 1.41311 0.219642 2.76638C1.28095 10.7261 5.80117 16.6978 8.6894 22.9978C24.6367 57.7828 50.2937 88.2926 89.3469 112.244C127.565 135.683 255.608 157.083 301.799 170.679C305.941 171.897 312.257 171.844 313.813 176.603C314.154 177.649 313.322 178.607 312.223 178.655C262.811 180.794 139.477 166.866 93.4958 156.374C92.4908 156.144 91.4718 156.724 91.4264 157.753C91.3146 160.292 93.0779 161.86 94.4964 163.401C107.62 177.662 122.464 191.044 139.404 202.995C180.679 232.118 232.394 248.452 285.799 262.596C299.583 266.246 314.08 268.535 327.558 273.014C328.64 273.373 329.203 274.604 328.485 275.49C326.851 277.507 324.214 278.401 321.423 278.552C305.165 279.43 289.129 281.53 272.536 280.34C247.301 278.529 222.224 276.62 197.934 271.074C194.641 270.322 190.377 269.599 188.27 272.536C186.467 275.048 189.267 276.995 191.547 278.64C214.388 295.123 238.918 309.978 268.559 320.071C274.263 322.013 277.853 321.506 282.162 318.273C294.778 308.805 307.374 299.278 320.828 290.434C368.526 259.08 422.065 233.16 475.112 206.815C486.298 201.26 486.98 199.968 476.013 194.728C426.932 171.282 376.598 149.241 326.232 127.249C258.864 97.8351 190.417 69.7374 119.986 42.0326Z" fill="#E0B152"/>
</svg>
