<svg width="1825" height="336" viewBox="0 0 1825 336" fill="none" xmlns="http://www.w3.org/2000/svg">
<path d="M221.355 246.653C194.317 271.438 180.083 299.804 173.1 330.218C172.672 332.083 174.847 333.336 176.253 332.039C182.073 326.673 187.562 321.196 193.196 315.796C216.361 293.592 244.775 275.741 279.411 263.073C301.366 255.044 324.494 249.644 348.483 245.414C374.657 240.799 400.858 238.582 427.754 238.671C458.559 238.772 489.474 240.23 520.009 235.062C530.408 233.302 540.814 231.567 550.756 228.946C575.653 222.381 596.203 211.01 614.897 197.831C616.666 196.585 618.7 195.41 620.183 193.736C621.123 192.674 620.187 191.252 618.769 191.297C615.772 191.393 613.052 191.584 610.306 192.074C589.588 195.776 568.503 197.588 547.212 198.639C538.268 199.081 529.227 198.65 521.299 196.567C521.101 196.515 520.898 196.492 520.693 196.503C518.605 196.611 515.832 196.857 515.503 194.552C515.174 192.245 518.036 192.16 520.221 191.668C540.314 187.144 559.702 181.275 579.384 175.958C617.109 165.768 648.457 149.547 672.779 126.571C676.418 123.133 680.642 119.911 684.081 115.383C685.105 114.034 683.914 112.28 682.246 112.576C649.01 118.467 597.153 126.671 564.454 124.165C563.362 124.081 562.443 123.072 562.889 122.072C563.22 121.332 563.812 120.878 564.928 120.523C573.164 117.905 606.062 113.476 614.229 110.751C638.469 102.662 662.444 94.1442 683.041 81.7653C716.539 61.6331 737.722 35.6476 751.67 6.37242C752.502 4.62557 754.041 2.77312 751.949 1.2301C749.461 -0.604955 746.663 0.871867 744.239 1.67567C702.477 15.5244 662.197 31.4008 622.308 47.7517C596.137 58.4793 570.181 69.4879 544.464 80.7879C506.285 97.5639 468.738 115.034 431.255 132.57C405.431 144.651 380.2 157.382 354.808 169.931C324.631 184.844 294.429 199.739 265.759 216.134C249.917 225.193 235.501 235.318 221.355 246.653ZM85.4773 29.9215C58.3637 19.8863 31.3626 9.68045 2.65287 0.813939C1.34857 0.411127 0.0411894 1.41482 0.279032 2.75903C1.21267 8.03566 4.22942 12.0974 6.19027 16.3713C17.551 41.1335 35.8289 62.8523 63.6501 79.9023C90.8766 96.5878 182.094 111.822 215 121.5C217.787 122.32 221.958 122.331 223.345 125.187C223.825 126.178 222.953 127.158 221.853 127.201C186.466 128.587 100.083 118.847 67.1139 111.432C66.1086 111.206 65.0412 111.796 65.1462 112.821C65.3007 114.329 66.4092 115.332 67.3186 116.32C76.6677 126.471 87.2425 135.997 99.3102 144.505C128.715 165.236 165.556 176.864 203.601 186.933C213.226 189.48 223.339 191.096 232.777 194.16C233.862 194.513 234.424 195.765 233.602 196.555C232.433 197.681 230.75 198.195 228.98 198.291C217.397 198.916 205.974 200.411 194.153 199.564C176.176 198.275 158.311 196.916 141.007 192.968C138.661 192.432 135.623 191.918 134.122 194.009C132.838 195.797 134.832 197.183 136.457 198.354C152.729 210.088 170.204 220.662 191.319 227.847C195.383 229.23 197.941 228.869 201.01 226.567C209.998 219.828 218.971 213.045 228.556 206.749C262.535 184.43 300.676 165.978 338.467 147.224C346.436 143.27 346.922 142.35 339.108 138.62C304.144 121.93 268.286 106.239 232.405 90.5844C184.413 69.6453 135.652 49.6436 85.4773 29.9215Z" fill="#E0B152"/>
<path d="M809.131 271V159.933H783.831V134.127H809.131V127.043C809.131 116.754 811.239 108.152 815.456 101.237C819.673 94.153 825.492 88.7557 832.913 85.045C840.503 81.3343 849.189 79.479 858.972 79.479C860.827 79.479 862.936 79.6477 865.297 79.985C867.658 80.1537 869.598 80.4067 871.116 80.744V105.538C869.767 105.201 868.249 105.032 866.562 105.032C864.875 104.863 863.526 104.779 862.514 104.779C854.924 104.779 848.852 106.55 844.298 110.092C839.744 113.465 837.467 119.116 837.467 127.043V134.127H868.839V159.933H837.467V271H809.131ZM932.524 274.036C923.247 274.036 915.067 272.434 907.983 269.229C901.068 265.856 895.67 261.302 891.791 255.567C887.912 249.664 885.972 242.748 885.972 234.821C885.972 227.4 887.574 220.737 890.779 214.834C894.152 208.931 899.297 203.955 906.212 199.907C913.127 195.859 921.814 192.992 932.271 191.305L979.835 183.462V205.979L937.837 213.316C930.247 214.665 924.681 217.111 921.139 220.653C917.597 224.026 915.826 228.412 915.826 233.809C915.826 239.038 917.766 243.339 921.645 246.712C925.693 249.917 930.837 251.519 937.078 251.519C944.837 251.519 951.583 249.832 957.318 246.459C963.221 243.086 967.775 238.616 970.98 233.05C974.185 227.315 975.787 220.99 975.787 214.075V178.908C975.787 172.161 973.257 166.68 968.197 162.463C963.306 158.078 956.728 155.885 948.463 155.885C940.873 155.885 934.211 157.909 928.476 161.957C922.91 165.836 918.778 170.896 916.079 177.137L892.297 165.246C894.827 158.499 898.959 152.596 904.694 147.536C910.429 142.307 917.091 138.259 924.681 135.392C932.44 132.525 940.62 131.091 949.222 131.091C960.017 131.091 969.546 133.115 977.811 137.163C986.244 141.211 992.738 146.861 997.292 154.114C1002.01 161.198 1004.38 169.463 1004.38 178.908V271H977.052V246.206L982.871 246.965C979.666 252.531 975.534 257.338 970.474 261.386C965.583 265.434 959.932 268.554 953.523 270.747C947.282 272.94 940.283 274.036 932.524 274.036ZM1037.8 271V79.479H1066.39V271H1037.8ZM1164.84 274.036C1151.18 274.036 1139.03 270.916 1128.41 264.675C1117.95 258.266 1109.6 249.664 1103.36 238.869C1097.29 228.074 1094.25 215.846 1094.25 202.184C1094.25 188.691 1097.29 176.547 1103.36 165.752C1109.43 154.957 1117.78 146.524 1128.41 140.452C1139.03 134.211 1151.18 131.091 1164.84 131.091C1174.12 131.091 1182.8 132.778 1190.9 136.151C1198.99 139.356 1205.99 143.825 1211.9 149.56C1217.97 155.295 1222.44 161.957 1225.31 169.547L1200.26 181.185C1197.39 174.101 1192.75 168.451 1186.34 164.234C1180.1 159.849 1172.94 157.656 1164.84 157.656C1157.08 157.656 1150.08 159.596 1143.84 163.475C1137.77 167.186 1132.96 172.499 1129.42 179.414C1125.88 186.161 1124.11 193.835 1124.11 202.437C1124.11 211.039 1125.88 218.798 1129.42 225.713C1132.96 232.46 1137.77 237.773 1143.84 241.652C1150.08 245.531 1157.08 247.471 1164.84 247.471C1173.1 247.471 1180.27 245.363 1186.34 241.146C1192.58 236.761 1197.22 230.942 1200.26 223.689L1225.31 235.58C1222.61 242.833 1218.22 249.411 1212.15 255.314C1206.25 261.049 1199.25 265.603 1191.15 268.976C1183.06 272.349 1174.28 274.036 1164.84 274.036ZM1319.28 274.036C1306.13 274.036 1294.07 270.916 1283.1 264.675C1272.31 258.434 1263.71 249.917 1257.3 239.122C1250.89 228.327 1247.68 216.099 1247.68 202.437C1247.68 188.606 1250.89 176.378 1257.3 165.752C1263.71 154.957 1272.31 146.524 1283.1 140.452C1293.9 134.211 1305.96 131.091 1319.28 131.091C1332.78 131.091 1344.83 134.211 1355.46 140.452C1366.26 146.524 1374.77 154.957 1381.01 165.752C1387.42 176.378 1390.63 188.606 1390.63 202.437C1390.63 216.268 1387.42 228.58 1381.01 239.375C1374.6 250.17 1366 258.687 1355.21 264.928C1344.41 271 1332.44 274.036 1319.28 274.036ZM1319.28 247.471C1327.38 247.471 1334.55 245.531 1340.79 241.652C1347.03 237.773 1351.92 232.46 1355.46 225.713C1359.17 218.798 1361.03 211.039 1361.03 202.437C1361.03 193.835 1359.17 186.161 1355.46 179.414C1351.92 172.667 1347.03 167.354 1340.79 163.475C1334.55 159.596 1327.38 157.656 1319.28 157.656C1311.35 157.656 1304.19 159.596 1297.78 163.475C1291.54 167.354 1286.56 172.667 1282.85 179.414C1279.31 186.161 1277.54 193.835 1277.54 202.437C1277.54 211.039 1279.31 218.798 1282.85 225.713C1286.56 232.46 1291.54 237.773 1297.78 241.652C1304.19 245.531 1311.35 247.471 1319.28 247.471ZM1418.54 271V134.127H1445.86V160.945L1442.57 157.403C1445.95 148.801 1451.34 142.307 1458.77 137.922C1466.19 133.368 1474.79 131.091 1484.57 131.091C1494.69 131.091 1503.63 133.284 1511.39 137.669C1519.15 142.054 1525.22 148.126 1529.61 155.885C1533.99 163.644 1536.18 172.583 1536.18 182.703V271H1507.85V190.293C1507.85 183.378 1506.58 177.559 1504.05 172.836C1501.52 167.945 1497.9 164.234 1493.17 161.704C1488.62 159.005 1483.39 157.656 1477.49 157.656C1471.58 157.656 1466.27 159.005 1461.55 161.704C1456.99 164.234 1453.45 167.945 1450.92 172.836C1448.39 177.727 1447.13 183.546 1447.13 190.293V271H1418.54Z" fill="#ffff"/>
</svg>
